<?xml version="1.0" encoding="UTF-8"?>
<!-- Generator: Adobe Illustrator 15.0.2, SVG Export Plug-In . SVG Version: 6.00 Build 0)  -->
<svg id="ORANGE_BACKGROUNDS" width="80" height="80" enable-background="new 0 0 96 96" version="1.1" viewBox="0 0 80 80" xml:space="preserve" xmlns="http://www.w3.org/2000/svg" xmlns:cc="http://creativecommons.org/ns#" xmlns:dc="http://purl.org/dc/elements/1.1/" xmlns:osb="http://www.openswatchbook.org/uri/2009/osb" xmlns:rdf="http://www.w3.org/1999/02/22-rdf-syntax-ns#" xmlns:xlink="http://www.w3.org/1999/xlink"><metadata><rdf:RDF><cc:Work rdf:about=""><dc:format>image/svg+xml</dc:format><dc:type rdf:resource="http://purl.org/dc/dcmitype/StillImage"/></cc:Work></rdf:RDF></metadata><defs>
	

		
		
		
		
	
	
<linearGradient id="a" x1="39" x2="39" y1="-7.7793" y2="133.27" gradientTransform="translate(240.61 -103.54)" gradientUnits="userSpaceOnUse"><stop stop-color="#fff" offset="0"/><stop offset="1"/></linearGradient>
	
	
	
	
	
	
<linearGradient id="c" x1="39" x2="39" y2="78.001" gradientTransform="translate(11.179 24.693)" gradientUnits="userSpaceOnUse"><stop stop-color="#E117E0" offset="0"/><stop stop-color="#C911C7" offset=".339"/><stop stop-color="#A909A7" offset=".7212"/></linearGradient><linearGradient id="b" x1="24.796" x2="31.193" y1="48.587" y2="71.84" gradientTransform="rotate(15 53.863 64.049)" gradientUnits="userSpaceOnUse"><stop stop-color="#fff" offset="0"/><stop stop-color="#FBFBFB" offset=".238"/><stop stop-color="#EFF0F0" offset=".4717"/><stop stop-color="#DCDDDE" offset=".7037"/><stop stop-color="#C0C3C5" offset=".9334"/><stop stop-color="#BBBEC0" offset=".9697"/></linearGradient></defs>


<g transform="translate(0,-16)"><path d="m1.334 16c-0.7363 0-1.334 0.59769-1.334 1.334v77.332c0 0.73625 0.59769 1.3339 1.334 1.3339h77.332c0.7363 1e-6 1.334-0.59768 1.334-1.334v-77.332c0-0.7363-0.59769-1.334-1.334-1.334h-38.668z" fill="url(#c)"/><path d="m1.334 16c-0.7363 0-1.334 0.59768-1.334 1.334v38.666 0.001953 38.664c0 0.73625 0.59769 1.334 1.334 1.334h38.668 38.664c0.7363 0 1.334-0.59768 1.334-1.334v-38.668-38.664c0-0.7363-0.59768-1.334-1.334-1.334h-38.666-0.001953-38.664zm9.666 10h28.998 0.001953 29c0.55222 0 1 0.44778 1 1v28.998 29.002c0 0.55222-0.44778 1-1 1h-28.998-29.002c-0.55222 0-1-0.44781-1-1v-28.998-0.001953-29c0-0.55222 0.44778-1 1-1z" fill="url(#a)" fill-opacity=".25"/></g><g transform="translate(0,-16)"><g transform="rotate(15 53.863 64.049)"><path d="m47.406 58.438c-0.5537 5.4463-10.886 1.1137-15.5 2.5-4.411 1.4327-15.297-3.6091-13.531 4-2.6648 8.5398 6.9444 4.8056 12.062 5.5625h26.531v-24.094c-7.7886-1.6011-11.552 0.82334-9.5625 9v3.0312z" opacity=".066667"/><path d="m47.062 58.438c-0.87572 4.8951-10.718 0.82338-15.156 2.1562-4.5429 1.4155-15.489-3.5725-13.875 4-2.939 9.0223 6.4195 5.7472 12 6.25h27.281v-24.781c-6.9809-0.8976-12.789-0.62233-10.25 8v4.375z" opacity=".066667"/><path d="m46.688 58.438c-1.9683 4.0421-11.341 0.68022-16.25 1.7812-5.5293 0.73115-15.584-3.063-12.781 6-2.2656 8.526 8.7173 3.8035 13.781 5h26.25v-25.531c-6.9887-0.65539-13.634-0.96708-11 8v4.75z" opacity=".066667"/><path d="m46.344 58.438c-2.3648 3.4165-11.122 0.44041-15.906 1.4375-4.8405 1.2012-15.645-3.5614-13.125 5-2.9065 9.1357 6.0427 6.4156 12 6.6875h28.719v-26.219c-6.1967 0.03246-14.57-2.1116-11.688 7v6.0938z" opacity=".066667"/><path d="m45.969 58.438c-2.8401 2.6912-10.856 0.20672-15.531 1.0625-4.9535 1.2132-15.899-3.5652-13.5 5-2.7991 8.9449 4.5005 7.7912 11 7.4375h30.469v-26.969c-5.4618 0.68407-15.299-3.0074-12.438 6v7.4688z" opacity=".066667"/><path d="m45.625 58.438c-2.2114 1.8392-7.9753 0.12593-11.433 0.71875h-17.598v13.125h42.156v-27.656h-13.125v13.812z" opacity=".066667"/><path d="m45.25 58.438c-1.4542 0.79877-4.3888 0.11713-6.4152 0.34375h-22.616v13.875h42.906v-28.406h-13.875v14.188z" opacity=".066667"/><path d="m44.812 43.906v14.438h-29.031v14.75h43.781v-29.281h-14.75z" opacity=".066667"/><path d="m44.562 43.906v14.188h-29.031v15.25h44.281v-29.781h-15.25z" opacity=".066667"/><path d="m44.188 43.906v13.812h-29.031v16h45.031v-30.531h-16v0.71879z" opacity=".066667"/><path d="m43.844 43.906c-1.2119 4.9444 3.5644 15.877-5 13.469h-24.031v16.688h45.719v-31.219h-16.688v1z" opacity=".066667"/><path d="m43.469 43.906c-1.2006 4.8307 3.5617 15.624-5 13.094h-24.031v17.438h46.469v-31.969h-17.438v1z" opacity=".066667"/><path d="m43.125 43.906c-0.72667 5.5233 3.0575 15.558-6 12.75h-23.031v18.125h47.156v-32.656h-18.125v1z" opacity=".066667"/><path d="m42.75 43.906c-0.67608 5.4489 2.9983 15.248-6 12.375h-23.031v18.875h47.906v-33.406h-18.875v2.1562z" opacity=".066667"/><path d="m42.406 43.906c-0.63592 5.3745 2.9547 14.975-6 12.031h-23.031v19.562h48.594v-34.094h-19.562v2.5z" opacity=".066667"/></g><path d="m51.262 42.285-3.7601 14.033-28.066-7.5203-3.7698 14.069 42.135 11.29 3.7601-14.033 0.0096-0.03598 3.7601-14.033-14.069-3.7698z" opacity=".25"/><g fill="#f00"><rect transform="rotate(15)" x="30.614" y="41.35" width="14.551" height="14.551"/><rect transform="rotate(15)" x="45.149" y="41.35" width="14.551" height="14.551"/><rect transform="rotate(15)" x="59.677" y="41.35" width="14.551" height="14.551"/></g><path d="m50.686 41.342-3.7601 14.033-28.066-7.5203-3.7698 14.069 42.135 11.29 3.7601-14.033 0.0096-0.03598 3.7601-14.033-14.069-3.7698z" fill="url(#b)"/><path d="m50.706 41.347-3.7691 14.066 14.066 3.7691 0.03235-0.12074-1.9224-3.3298-0.03235 0.12074-8.8443-2.3698 2.3698-8.8443 0.12074 0.03235-1.9003-3.2915-0.12074-0.03235z" opacity=".25"/><path d="m50.826 41.379 1.9003 3.2915 8.7235 2.3375-2.3375 8.7235 1.9224 3.3298 3.7367-13.946z" fill="#fff" opacity=".25"/><path d="m46.957 55.337-3.7691 14.066 14.066 3.7691 0.03235-0.12074-1.9224-3.3298-0.03235 0.12074-8.8443-2.3698 2.3698-8.8443 0.12074 0.03235-1.9003-3.2915z" opacity=".25"/><path d="m47.078 55.369 1.9003 3.2915 8.7235 2.3375-2.3375 8.7235 1.9224 3.3298 3.7367-13.946z" fill="#fff" opacity=".25"/><path d="m32.834 51.552-3.7691 14.066 14.066 3.7691 0.03235-0.12074-1.9224-3.3298-0.03235 0.12074-8.8443-2.3698 2.3698-8.8443 0.12074 0.03235-1.9004-3.2915-0.12074-0.03235z" opacity=".25"/><path d="m32.955 51.585 1.9004 3.2915 8.7235 2.3375-2.3375 8.7235 1.9224 3.3298 3.7367-13.946z" fill="#fff" opacity=".25"/><path d="m18.78 47.786-3.7691 14.066 14.066 3.7691 0.03235-0.12074-1.9224-3.3298-0.03235 0.12074-8.8443-2.3698 2.3698-8.8443 0.12074 0.03235-1.9003-3.2915z" opacity=".25"/><path d="m18.9 47.819 1.9003 3.2915 8.7235 2.3375-2.3375 8.7235 1.9224 3.3298 3.7367-13.946z" fill="#fff" opacity=".25"/></g></svg>
