<?xml version="1.0" encoding="UTF-8" standalone="no"?>
<!-- Created with Inkscape (http://www.inkscape.org/) -->

<svg
   xmlns:dc="http://purl.org/dc/elements/1.1/"
   xmlns:cc="http://creativecommons.org/ns#"
   xmlns:rdf="http://www.w3.org/1999/02/22-rdf-syntax-ns#"
   xmlns:svg="http://www.w3.org/2000/svg"
   xmlns="http://www.w3.org/2000/svg"
   xmlns:sodipodi="http://sodipodi.sourceforge.net/DTD/sodipodi-0.dtd"
   xmlns:inkscape="http://www.inkscape.org/namespaces/inkscape"
   width="343.74493"
   height="112.06544"
   id="svg3866"
   version="1.1"
   inkscape:version="0.48.1 "
   sodipodi:docname="author.svg">
  <defs
     id="defs3868" />
  <sodipodi:namedview
     id="base"
     pagecolor="#ffffff"
     bordercolor="#666666"
     borderopacity="1.0"
     inkscape:pageopacity="0.0"
     inkscape:pageshadow="2"
     inkscape:zoom="0.35"
     inkscape:cx="54.165122"
     inkscape:cy="-211.06602"
     inkscape:document-units="px"
     inkscape:current-layer="layer1"
     showgrid="false"
     fit-margin-top="0"
     fit-margin-left="0"
     fit-margin-right="0"
     fit-margin-bottom="0"
     inkscape:window-width="1304"
     inkscape:window-height="746"
     inkscape:window-x="-8"
     inkscape:window-y="-8"
     inkscape:window-maximized="1" />
  <metadata
     id="metadata3871">
    <rdf:RDF>
      <cc:Work
         rdf:about="">
        <dc:format>image/svg+xml</dc:format>
        <dc:type
           rdf:resource="http://purl.org/dc/dcmitype/StillImage" />
        <dc:title />
      </cc:Work>
    </rdf:RDF>
  </metadata>
  <g
     inkscape:label="Layer 1"
     inkscape:groupmode="layer"
     id="layer1"
     transform="translate(-446.69898,-181.88206)">
    <g
       style="font-size:26.91170311000000100px;font-style:normal;font-variant:normal;font-weight:normal;font-stretch:normal;text-align:center;line-height:93.99999975999999400%;letter-spacing:0px;word-spacing:0px;text-anchor:middle;fill:#000000;fill-opacity:1;stroke:none;font-family:Open Sans;-inkscape-font-specification:Sans;opacity:1"
       id="text4419"
       transform="matrix(2.0284817,0,0,2.0284817,-459.42171,-187.06237)">
      <path
         d="m 527.06339,186.99535 c 0.48399,1e-5 0.93693,0.0897 1.3588,0.26897 0.42185,0.17933 0.79417,0.4305 1.11695,0.75352 0.32274,0.32305 0.57392,0.69537 0.75352,1.11694 0.17957,0.42161 0.26936,0.87441 0.26938,1.3584 l 0,8.61194 c -2e-5,0.48456 -0.0898,0.93763 -0.26938,1.35922 -0.1796,0.42159 -0.43078,0.79391 -0.75352,1.11694 -0.32278,0.32304 -0.6951,0.57421 -1.11695,0.75353 -0.42187,0.17931 -0.87481,0.26897 -1.3588,0.26897 l -12.37998,0 0,-20.72172 2.90651,0 0,5.11329 z m 0.59214,3.49783 c -10e-6,-0.16151 -0.0583,-0.30044 -0.17493,-0.4168 -0.11664,-0.11633 -0.25571,-0.17451 -0.41721,-0.17452 l -8.88133,0 c -0.16152,1e-5 -0.30059,0.0582 -0.41721,0.17452 -0.11662,0.11636 -0.17493,0.25529 -0.17493,0.4168 l 0,8.61194 c 0,0.16152 0.0583,0.30059 0.17493,0.41721 0.11662,0.11663 0.25569,0.17494 0.41721,0.17494 l 8.88133,0 c 0.1615,0 0.30057,-0.0583 0.41721,-0.17494 0.1166,-0.11662 0.17492,-0.25569 0.17493,-0.41721 z"
         style="line-height:93.99999975999999400%;fill:#fb8b00;font-family:Orbitron;-inkscape-font-specification:Orbitron"
         id="path3886"
         inkscape:connector-curvature="0" />
      <path
         d="m 548.16207,196.62978 0,0.0534 0,8.61194 c -2e-5,0.48455 -0.0897,0.93762 -0.26897,1.35922 -0.17933,0.42158 -0.4305,0.79376 -0.75352,1.11653 -0.32306,0.32276 -0.69537,0.57393 -1.11694,0.75352 -0.42161,0.17958 -0.87441,0.26938 -1.3584,0.26938 l -9.63444,0 0,-2.90651 9.63444,0 c 0.16096,0 0.29975,-0.0583 0.41639,-0.17493 0.11661,-0.11662 0.17492,-0.25569 0.17493,-0.41721 l 0,-2.69133 -9.47264,0 c -0.48456,0 -0.93764,-0.0897 -1.35922,-0.26897 -0.4216,-0.17932 -0.79377,-0.43049 -1.11653,-0.75353 -0.32277,-0.32303 -0.57394,-0.69535 -0.75353,-1.11694 -0.17958,-0.42159 -0.26938,-0.87466 -0.26938,-1.35922 l 0,-12.05639 2.90651,0 0,12.05639 c 0,0.16152 0.0583,0.30059 0.17494,0.41721 0.11661,0.11663 0.25568,0.17494 0.41721,0.17494 l 8.88132,0 c 0.16096,0 0.29975,-0.0583 0.41639,-0.17494 0.11661,-0.11662 0.17492,-0.25569 0.17493,-0.41721 l 0,-12.05639 2.90651,0 z"
         style="line-height:93.99999975999999400%;fill:#fb8b00;font-family:Orbitron;-inkscape-font-specification:Orbitron"
         id="path3888"
         inkscape:connector-curvature="0" />
      <path
         d="m 465.09863,213.92856 c 0.7202,3e-5 1.39362,0.13329 2.02027,0.39978 0.6266,0.26655 1.17999,0.63988 1.66015,1.12 0.48012,0.48016 0.85345,1.03355 1.12,1.66015 0.26649,0.62665 0.39975,1.29966 0.39978,2.01905 l 0,12.80029 c -3e-5,0.72022 -0.13329,1.39364 -0.39978,2.02026 -0.26655,0.62663 -0.63988,1.18002 -1.12,1.66016 -0.48016,0.48014 -1.03355,0.85348 -1.66015,1.11999 -0.62665,0.26653 -1.30007,0.39979 -2.02027,0.39979 l -13.19946,0 c -0.72022,0 -1.39364,-0.13326 -2.02026,-0.39979 -0.62664,-0.26651 -1.17982,-0.63985 -1.65955,-1.11999 -0.47974,-0.48014 -0.85307,-1.03353 -1.11999,-1.66016 -0.26693,-0.62662 -0.4004,-1.30004 -0.4004,-2.02026 l 0,-12.80029 c 0,-0.71939 0.13347,-1.3924 0.4004,-2.01905 0.26692,-0.6266 0.64025,-1.17999 1.11999,-1.66015 0.47973,-0.48012 1.03291,-0.85345 1.65955,-1.12 0.62662,-0.26649 1.30004,-0.39975 2.02026,-0.39978 z m -13.19946,4.32007 c -0.24008,2e-5 -0.44678,0.0865 -0.62012,0.2594 -0.17334,0.17295 -0.26001,0.37945 -0.26001,0.61951 l 0,12.80029 c 0,0.24008 0.0867,0.44678 0.26001,0.62012 0.17334,0.17334 0.38004,0.26001 0.62012,0.26001 l 13.19946,0 c 0.24005,0 0.44676,-0.0867 0.62012,-0.26001 0.17332,-0.17334 0.25999,-0.38004 0.26001,-0.62012 l 0,-12.80029 c -2e-5,-0.24006 -0.0867,-0.44656 -0.26001,-0.61951 -0.17336,-0.17291 -0.38007,-0.25938 -0.62012,-0.2594 z"
         style="font-size:40px;line-height:93.99999975999999400%;fill:#fb8b00;font-family:Orbitron;-inkscape-font-specification:Orbitron"
         id="path3890"
         inkscape:connector-curvature="0" />
      <path
         d="m 496.83569,206.32846 0,30.79957 -18.39965,0 c -0.72023,0 -1.39365,-0.13326 -2.02027,-0.39979 -0.62663,-0.26651 -1.18001,-0.63985 -1.66015,-1.11999 -0.48015,-0.48014 -0.85348,-1.03353 -1.12,-1.66016 -0.26652,-0.62662 -0.39978,-1.30004 -0.39978,-2.02026 l 0,-12.80029 c 0,-0.71939 0.13326,-1.3924 0.39978,-2.01905 0.26652,-0.6266 0.63985,-1.17999 1.12,-1.66015 0.48014,-0.48012 1.03352,-0.85345 1.66015,-1.12 0.62662,-0.26649 1.30004,-0.39975 2.02027,-0.39978 l 14.07958,0 0,-7.6001 z m -5.20019,26.4795 c 0.24005,0 0.44676,-0.0867 0.62012,-0.26001 0.17331,-0.17334 0.25998,-0.38004 0.26,-0.62012 l 0,-12.80029 c -2e-5,-0.24006 -0.0867,-0.44656 -0.26,-0.61951 -0.17336,-0.17291 -0.38007,-0.25938 -0.62012,-0.2594 l -13.19946,0 c -0.24008,2e-5 -0.44679,0.0865 -0.62012,0.2594 -0.17335,0.17295 -0.26002,0.37945 -0.26001,0.61951 l 0,12.80029 c -10e-6,0.24008 0.0867,0.44678 0.26001,0.62012 0.17333,0.17334 0.38004,0.26001 0.62012,0.26001 z"
         style="font-size:40px;line-height:93.99999975999999400%;fill:#fb8b00;font-family:Orbitron;-inkscape-font-specification:Orbitron"
         id="path3892"
         inkscape:connector-curvature="0" />
      <path
         d="m 519.43579,213.92856 c 0.72019,3e-5 1.39362,0.13329 2.02026,0.39978 0.62661,0.26655 1.17999,0.63988 1.66016,1.12 0.48012,0.48016 0.85345,1.03355 1.12,1.66015 0.26649,0.62665 0.39975,1.29966 0.39978,2.01905 l 0,18.00049 -18.39966,0 c -0.72022,0 -1.39364,-0.13326 -2.02027,-0.39979 -0.62663,-0.26651 -1.18001,-0.63985 -1.66015,-1.11999 -0.48015,-0.48014 -0.85348,-1.03353 -1.12,-1.66016 -0.26652,-0.62662 -0.39978,-1.30004 -0.39978,-2.02026 l 0,-8.55957 19.27979,0 0,-4.24072 c -2e-5,-0.24006 -0.0867,-0.44656 -0.26001,-0.61951 -0.17336,-0.17291 -0.38007,-0.25938 -0.62012,-0.2594 l -18.39966,0 0,-4.32007 z m 0.88013,13.75977 -14.95972,0 0,4.2395 c -10e-6,0.24008 0.0867,0.44678 0.26001,0.62012 0.17333,0.17334 0.38004,0.26001 0.62012,0.26001 l 14.07959,0 z"
         style="font-size:40px;line-height:93.99999975999999400%;fill:#fb8b00;font-family:Orbitron;-inkscape-font-specification:Orbitron"
         id="path3894"
         inkscape:connector-curvature="0" />
      <path
         d="m 558.49097,213.92856 c 0.71937,3e-5 1.39238,0.13329 2.01904,0.39978 0.62659,0.26655 1.17998,0.63988 1.66016,1.12 0.4801,0.48016 0.85343,1.03355 1.11999,1.66015 0.26648,0.62665 0.39974,1.29966 0.39978,2.01905 l 0,18.00049 -4.27978,0 0,-18.00049 c -4e-5,-0.24006 -0.0867,-0.44656 -0.26001,-0.61951 -0.17338,-0.17291 -0.3931,-0.25938 -0.65918,-0.2594 l -9.16016,0 c -0.24009,2e-5 -0.4468,0.0865 -0.62012,0.2594 -0.17336,0.17295 -0.26003,0.37945 -0.26001,0.61951 l 0,18.00049 -4.32006,0 0,-18.00049 c -2e-5,-0.24006 -0.0867,-0.44656 -0.26001,-0.61951 -0.17336,-0.17291 -0.38007,-0.25938 -0.62012,-0.2594 l -9.20044,0 c -0.24008,2e-5 -0.44679,0.0865 -0.62012,0.2594 -0.17334,0.17295 -0.26001,0.37945 -0.26001,0.61951 l 0,18.00049 -4.32007,0 0,-23.19947 z"
         style="font-size:40px;line-height:93.99999975999999400%;fill:#fb8b00;font-family:Orbitron;-inkscape-font-specification:Orbitron"
         id="path3896"
         inkscape:connector-curvature="0" />
      <path
         d="m 567.91113,213.92856 4.32007,0 0,23.19947 -4.32007,0 z m 4.32007,-7.6001 0,4.32007 -4.32007,0 0,-4.32007 z"
         style="font-size:40px;line-height:93.99999975999999400%;fill:#fb8b00;font-family:Orbitron;-inkscape-font-specification:Orbitron"
         id="path3898"
         inkscape:connector-curvature="0" />
      <path
         d="m 580.55273,218.24863 0,13.6792 c 0,0.24008 0.0867,0.44678 0.26001,0.62012 0.17334,0.17334 0.38004,0.26001 0.62012,0.26001 l 8.63892,0 0,4.32007 -8.63892,0 c -0.72022,0 -1.39364,-0.13326 -2.02026,-0.39979 -0.62663,-0.26651 -1.18002,-0.63985 -1.66016,-1.11999 -0.48014,-0.48014 -0.85348,-1.03353 -1.11999,-1.66016 -0.26653,-0.62662 -0.39979,-1.30004 -0.39978,-2.02026 l 0,-12.80029 0,-12.79908 4.32006,0 0,7.6001 9.51905,0 0,4.32007 z"
         style="font-size:40px;line-height:93.99999975999999400%;fill:#fb8b00;font-family:Orbitron;-inkscape-font-specification:Orbitron"
         id="path3900"
         inkscape:connector-curvature="0" />
      <path
         d="m 610.95801,213.92856 c 0.72019,3e-5 1.39361,0.13329 2.02026,0.39978 0.62661,0.26655 1.17999,0.63988 1.66016,1.12 0.48012,0.48016 0.85345,1.03355 1.11999,1.66015 0.2665,0.62665 0.39976,1.29966 0.39978,2.01905 l 0,8.56079 -19.27978,0 0,4.2395 c -10e-6,0.24008 0.0867,0.44678 0.26001,0.62012 0.17333,0.17334 0.38004,0.26001 0.62011,0.26001 l 18.39966,0 0,4.32007 -18.39966,0 c -0.72022,0 -1.39364,-0.13326 -2.02026,-0.39979 -0.62663,-0.26651 -1.17981,-0.63985 -1.65954,-1.11999 -0.47974,-0.48014 -0.85308,-1.03353 -1.12,-1.66016 -0.26693,-0.62662 -0.40039,-1.30004 -0.40039,-2.02026 l 0,-12.80029 c 0,-0.71939 0.13346,-1.3924 0.40039,-2.01905 0.26692,-0.6266 0.64026,-1.17999 1.12,-1.66015 0.47973,-0.48012 1.03291,-0.85345 1.65954,-1.12 0.62662,-0.26649 1.30004,-0.39975 2.02026,-0.39978 z m 0.88012,9.4397 0,-4.24072 c -2e-5,-0.24006 -0.0867,-0.44656 -0.26001,-0.61951 -0.17336,-0.17291 -0.38006,-0.25938 -0.62011,-0.2594 l -13.19947,0 c -0.24007,2e-5 -0.44678,0.0865 -0.62011,0.2594 -0.17335,0.17295 -0.26002,0.37945 -0.26001,0.61951 l 0,4.24072 z"
         style="font-size:40px;line-height:93.99999975999999400%;fill:#fb8b00;font-family:Orbitron;-inkscape-font-specification:Orbitron"
         id="path3902"
         inkscape:connector-curvature="0" />
    </g>
  </g>
</svg>
