<?xml version="1.0" encoding="UTF-8" standalone="no"?>
<!-- Created with Inkscape (http://www.inkscape.org/) -->

<svg
   xmlns:dc="http://purl.org/dc/elements/1.1/"
   xmlns:cc="http://creativecommons.org/ns#"
   xmlns:rdf="http://www.w3.org/1999/02/22-rdf-syntax-ns#"
   xmlns:svg="http://www.w3.org/2000/svg"
   xmlns="http://www.w3.org/2000/svg"
   xmlns:xlink="http://www.w3.org/1999/xlink"
   xmlns:sodipodi="http://sodipodi.sourceforge.net/DTD/sodipodi-0.dtd"
   xmlns:inkscape="http://www.inkscape.org/namespaces/inkscape"
   width="303.5625"
   height="65.636818"
   id="svg3363"
   version="1.1"
   inkscape:version="0.48.1 "
   sodipodi:docname="New document 2">
  <defs
     id="defs3365">
    <linearGradient
       inkscape:collect="always"
       xlink:href="#linearGradient4920"
       id="linearGradient4577"
       gradientUnits="userSpaceOnUse"
       gradientTransform="matrix(1.1178467,0,0,1.1178467,-526.42739,149.05544)"
       x1="699.65375"
       y1="-206.4256"
       x2="699.65375"
       y2="-53.452927" />
    <linearGradient
       inkscape:collect="always"
       id="linearGradient4920">
      <stop
         style="stop-color:#ffffff;stop-opacity:1;"
         offset="0"
         id="stop4922" />
      <stop
         style="stop-color:#ffffff;stop-opacity:0;"
         offset="1"
         id="stop4924" />
    </linearGradient>
    <linearGradient
       y2="-53.452927"
       x2="699.65375"
       y1="-206.4256"
       x1="699.65375"
       gradientTransform="matrix(1.1178467,0,0,1.1178467,-526.42739,149.05544)"
       gradientUnits="userSpaceOnUse"
       id="linearGradient3361"
       xlink:href="#linearGradient4920"
       inkscape:collect="always" />
  </defs>
  <sodipodi:namedview
     id="base"
     pagecolor="#ffffff"
     bordercolor="#666666"
     borderopacity="1.0"
     inkscape:pageopacity="0.0"
     inkscape:pageshadow="2"
     inkscape:zoom="0.49497475"
     inkscape:cx="139.86188"
     inkscape:cy="-76.864421"
     inkscape:document-units="px"
     inkscape:current-layer="layer1"
     showgrid="false"
     fit-margin-top="0"
     fit-margin-left="0"
     fit-margin-right="0"
     fit-margin-bottom="0"
     inkscape:window-width="469"
     inkscape:window-height="455"
     inkscape:window-x="100"
     inkscape:window-y="100"
     inkscape:window-maximized="0" />
  <metadata
     id="metadata3368">
    <rdf:RDF>
      <cc:Work
         rdf:about="">
        <dc:format>image/svg+xml</dc:format>
        <dc:type
           rdf:resource="http://purl.org/dc/dcmitype/StillImage" />
        <dc:title></dc:title>
      </cc:Work>
    </rdf:RDF>
  </metadata>
  <g
     inkscape:label="Layer 1"
     inkscape:groupmode="layer"
     id="layer1"
     transform="translate(-125.36161,-285.25806)">
    <g
       id="g4559"
       transform="translate(-485.71194,402.83627)">
      <g
         transform="matrix(1.1178467,0,0,1.1178467,-3.4788406,9.989051)"
         id="g4898">
        <path
           style="fill:#86a3ee;fill-opacity:1;stroke:none"
           d="m 549.77695,-114.11874 0,14.677804 14.6778,0 0,44.033438 14.6778,0 0,-44.033438 14.6778,0 0,-14.677804 -44.0334,0 z"
           id="path4803"
           inkscape:connector-curvature="0" />
        <path
           style="fill:#ea9a49;fill-opacity:1;stroke:none"
           d="m 601.14925,-114.11874 0,14.677804 0,14.677836 0,14.677801 0,14.677801 14.6778,0 0,-14.677801 14.6778,0 0,14.677801 14.67781,0 0,-14.677801 c 0,-8.106366 -6.57144,-14.677801 -14.67781,-14.677801 l -14.6778,0 0,-14.677836 14.6778,0 0,14.677836 14.67781,0 0,-14.677836 c 0,-8.106344 -6.57145,-14.677804 -14.67781,-14.677804 l -14.6778,0 -14.6778,0 z"
           id="path4801"
           inkscape:connector-curvature="0" />
        <path
           style="fill:#ddff53;fill-opacity:1;stroke:none"
           d="m 652.52156,-114.11874 0,58.711242 14.6778,0 0,-58.711242 -14.6778,0 z"
           id="path4799"
           inkscape:connector-curvature="0" />
        <path
           style="fill:#65c76f;fill-opacity:1;stroke:none"
           d="m 674.53826,-114.11874 0,14.677804 14.6778,0 0,44.033438 14.6778,0 0,-44.033438 14.6778,0 0,-14.677804 -44.0334,0 z"
           id="path4797"
           inkscape:connector-curvature="0" />
        <path
           style="fill:#da5ed7;fill-opacity:1;stroke:none"
           d="m 740.58836,-114.11874 c -8.10633,0 -14.6778,6.57144 -14.6778,14.677804 l 0,7.338936 0,14.677801 0,7.3389 c 0,8.106325 6.57143,14.677801 14.6778,14.677801 l 29.35563,0 0,-14.677801 -29.35563,0 0,-7.3389 29.35563,0 0,-14.677801 -29.35563,0 0,-7.338936 29.35563,0 0,-14.677804 -29.35563,0 z"
           id="path4795"
           inkscape:connector-curvature="0" />
        <path
           style="fill:#e85050;fill-opacity:1;stroke:none"
           d="m 791.96069,-114.11874 c -8.10637,0 -14.6778,6.57146 -14.6778,14.677804 l 0,7.338936 c 0,8.106366 6.57143,14.677801 14.6778,14.677801 l 14.6778,0 0,7.3389 -29.3556,0 0,14.677801 29.3556,0 c 8.10637,0 14.67775,-6.571435 14.67775,-14.677801 l 0,-7.3389 c 0,-8.106366 -6.57138,-14.677801 -14.67775,-14.677801 l -14.6778,0 0,-7.338936 29.35555,0 0,-14.677804 -29.35555,0 z"
           id="rect4732"
           inkscape:connector-curvature="0" />
      </g>
      <path
         inkscape:connector-curvature="0"
         transform="translate(522.94855,-139.06639)"
         id="path4908"
         d="m 88.125,21.5 0,16.40625 16.40625,0 0,49.21875 16.4375,0 0,-49.21875 16.40625,0 0,-16.40625 -49.25,0 z m 57.4375,0 0,16.40625 0,16.40625 0,16.40625 0,16.40625 16.40625,0 0,-16.40625 16.40625,0 0,16.40625 16.40625,0 0,-16.40625 c 0,-9.061675 -7.34458,-16.40625 -16.40625,-16.40625 l -16.40625,0 0,-16.40625 16.40625,0 0,16.40625 16.40625,0 0,-16.40625 C 194.78125,28.8446 187.43666,21.5 178.375,21.5 l -16.40625,0 -16.40625,0 z m 57.4375,0 0,65.625 16.40625,0 0,-65.625 L 203,21.5 z m 24.59375,0 0,16.40625 16.40625,0 0,49.21875 16.40625,0 0,-49.21875 16.40625,0 0,-16.40625 -49.21875,0 z m 73.84375,0 c -9.06163,0 -16.40625,7.34458 -16.40625,16.40625 l 0,8.1875 0,16.40625 0,8.21875 c 0,9.061628 7.34457,16.40625 16.40625,16.40625 l 32.8125,0 0,-16.40625 -32.8125,0 0,-8.21875 32.8125,0 0,-16.40625 -32.8125,0 0,-8.1875 32.8125,0 0,-16.40625 -32.8125,0 z m 57.4375,0 c -9.06168,0 -16.40625,7.3446 -16.40625,16.40625 l 0,8.1875 c 0,9.061675 7.34457,16.40625 16.40625,16.40625 l 16.40625,0 0,8.21875 -32.8125,0 0,16.40625 32.8125,0 c 9.06168,0 16.40625,-7.344576 16.40625,-16.40625 l 0,-8.21875 c 0,-9.061675 -7.34457,-16.40625 -16.40625,-16.40625 l -16.40625,0 0,-8.1875 32.8125,0 0,-16.40625 -32.8125,0 z"
         style="fill:url(#linearGradient3361);fill-opacity:1;stroke:none" />
    </g>
  </g>
</svg>
